<svg id="iconjianshenengyuantupu" viewBox="0 0 1024 1024"><path d="M153.6 324.266667l375.466667 170.666666v460.8L153.6 785.066667V324.266667z m17.066667 26.504533v423.304533l341.333333 155.153067V505.924267L170.666667 350.7712z" fill="#C6E5FF"></path><path d="M512 51.2l375.466667 170.666667v460.8L512 512V51.2z m17.066667 26.504533v423.304534l341.333333 155.153066V232.8576L529.066667 77.704533z" fill="#C6E5FF"></path><path d="M175.872 781.806933l708.266667-544.648533-10.410667-13.5168-708.266667 544.631467z" fill="#C6E5FF"></path><path d="M887.466667 221.866667m-34.133334 0a34.133333 34.133333 0 1 0 68.266667 0 34.133333 34.133333 0 1 0-68.266667 0Z" fill="#1875F0"></path><path d="M512 938.666667m-34.133333 0a34.133333 34.133333 0 1 0 68.266666 0 34.133333 34.133333 0 1 0-68.266666 0Z" fill="#1875F0"></path><path d="M153.6 785.066667m-34.133333 0a34.133333 34.133333 0 1 0 68.266666 0 34.133333 34.133333 0 1 0-68.266666 0Z" fill="#1875F0"></path><path d="M153.6 341.333333m-34.133333 0a34.133333 34.133333 0 1 0 68.266666 0 34.133333 34.133333 0 1 0-68.266666 0Z" fill="#1875F0"></path><path d="M512 68.266667m-34.133333 0a34.133333 34.133333 0 1 0 68.266666 0 34.133333 34.133333 0 1 0-68.266666 0Z" fill="#1875F0"></path><path d="M887.466667 665.6m-34.133334 0a34.133333 34.133333 0 1 0 68.266667 0 34.133333 34.133333 0 1 0-68.266667 0Z" fill="#1875F0"></path><path d="M400.759467 587.093333C367.6672 587.093333 341.333333 559.616 341.333333 525.397333c0-34.184533 27.016533-61.6448 59.426134-61.6448 32.426667 0 59.426133 27.477333 59.426133 61.661867-0.017067 34.2016-26.333867 61.678933-59.426133 61.678933z m63.488-184.3712c-20.9408 0-38.485333-17.442133-38.485334-39.5776A38.485333 38.485333 0 0 1 464.213333 324.266667c20.923733 0 38.485333 17.442133 38.485334 39.560533 0 22.135467-16.896 38.894933-38.485334 38.894933z m197.1712 35.498667c-30.378667 0-55.381333-25.480533-55.381334-56.968533 0-31.505067 25.019733-56.9856 55.381334-56.9856C691.831467 324.266667 716.8 349.7472 716.8 381.269333c0 31.488-24.968533 56.968533-55.381333 56.968534v-0.017067zM623.616 699.733333c-39.850667 0-72.942933-33.536-72.942933-75.776 0-42.24 33.109333-75.093333 72.942933-75.093333s72.925867 33.536 72.925867 75.776c0 42.24-32.426667 75.093333-72.925867 75.093333z" fill="#1875F0"></path><path d="M446.446933 479.010133l177.783467-97.450666 7.236267 11.8784-177.783467 97.450666-7.236267-11.8784z m7.611734 47.837867l116.309333 58.368-6.741333 12.117333-116.309334-58.368 6.741334-12.117333zM409.6 456.874667L444.416 375.466667l13.397333 5.188266-34.816 81.408-13.397333-5.205333z" fill="#1875F0"></path></svg>