<svg id="iconnengyuanshujupingtai" viewBox="0 0 1024 1024"><path d="M529.066667 494.933333c188.5184 0 341.333333-84.053333 341.333333-187.733333S717.585067 119.466667 529.066667 119.466667 187.733333 203.52 187.733333 307.2s152.814933 187.733333 341.333334 187.733333z m0-17.066666C348.7232 477.866667 204.8 398.711467 204.8 307.2S348.7232 136.533333 529.066667 136.533333s324.266667 79.1552 324.266666 170.666667-143.9232 170.666667-324.266666 170.666667z" fill="#C6E5FF"></path><path d="M529.066667 665.6c188.5184 0 341.333333-84.053333 341.333333-187.733333s-152.814933-187.733333-341.333333-187.733334S187.733333 374.186667 187.733333 477.866667s152.814933 187.733333 341.333334 187.733333z m0-17.066667C348.7232 648.533333 204.8 569.378133 204.8 477.866667s143.9232-170.666667 324.266667-170.666667 324.266667 79.1552 324.266666 170.666667-143.9232 170.666667-324.266666 170.666666z" fill="#C6E5FF"></path><path d="M529.066667 870.4c188.5184 0 341.333333-84.053333 341.333333-187.733333s-152.814933-187.733333-341.333333-187.733334S187.733333 578.986667 187.733333 682.666667s152.814933 187.733333 341.333334 187.733333z m0-17.066667C348.7232 853.333333 204.8 774.178133 204.8 682.666667s143.9232-170.666667 324.266667-170.666667 324.266667 79.1552 324.266666 170.666667-143.9232 170.666667-324.266666 170.666666z" fill="#C6E5FF"></path><path d="M520.533333 136.533333h17.066667v716.8h-17.066667z" fill="#C6E5FF"></path><path d="M193.365333 665.6c29.184 87.381333 168.379733 153.6 335.701334 153.6 167.3216 0 306.517333-66.218667 335.701333-153.6 3.703467 11.076267 5.632 22.4768 5.632 34.133333 0 103.68-152.814933 187.733333-341.333333 187.733334S187.733333 803.413333 187.733333 699.733333c0-11.656533 1.928533-23.057067 5.632-34.133333zM522.325333 500.48l-98.542933-54.6816a6.536533 6.536533 0 0 1-0.1024-11.383467l98.4064-56.900266a15.2576 15.2576 0 0 1 15.274667 0l98.4064 56.900266a6.536533 6.536533 0 0 1-0.1024 11.383467l-98.542934 54.6816a15.2576 15.2576 0 0 1-14.7968 0z m-11.400533 143.6672l-93.678933-53.845333a15.2576 15.2576 0 0 1-7.645867-13.2096v-113.015467a8.704 8.704 0 0 1 13.056-7.543467l93.661867 53.828267c4.744533 2.730667 7.662933 7.765333 7.662933 13.226667V636.586667a8.704 8.704 0 0 1-13.056 7.560533z m36.3008 0a8.704 8.704 0 0 1-13.073067-7.560533V523.605333c0-5.461333 2.9184-10.496 7.662934-13.226666l93.661866-53.828267a8.704 8.704 0 0 1 13.056 7.543467v113.015466c0 5.461333-2.901333 10.496-7.645866 13.2096l-93.661867 53.845334z" fill="#1875F0"></path><path d="M853.333333 273.066667m-34.133333 0a34.133333 34.133333 0 1 0 68.266667 0 34.133333 34.133333 0 1 0-68.266667 0Z" fill="#1875F0"></path><path d="M750.933333 443.733333m-34.133333 0a34.133333 34.133333 0 1 0 68.266667 0 34.133333 34.133333 0 1 0-68.266667 0Z" fill="#1875F0"></path></svg>