<svg id="iconkaizhannengyuanshuju" viewBox="0 0 1024 1024"><path d="M512 546.133333c188.5184 0 341.333333-84.053333 341.333333-187.733333S700.5184 170.666667 512 170.666667 170.666667 254.72 170.666667 358.4s152.814933 187.733333 341.333333 187.733333z m0-17.066666C331.656533 529.066667 187.733333 449.911467 187.733333 358.4S331.656533 187.733333 512 187.733333s324.266667 79.1552 324.266667 170.666667-143.9232 170.666667-324.266667 170.666667z" fill="#C6E5FF"></path><path d="M512 716.8c188.5184 0 341.333333-84.053333 341.333333-187.733333s-152.814933-187.733333-341.333333-187.733334S170.666667 425.386667 170.666667 529.066667s152.814933 187.733333 341.333333 187.733333z m0-17.066667C331.656533 699.733333 187.733333 620.578133 187.733333 529.066667s143.9232-170.666667 324.266667-170.666667 324.266667 79.1552 324.266667 170.666667-143.9232 170.666667-324.266667 170.666666z" fill="#C6E5FF"></path><path d="M512 921.6c188.5184 0 341.333333-84.053333 341.333333-187.733333s-152.814933-187.733333-341.333333-187.733334S170.666667 630.186667 170.666667 733.866667s152.814933 187.733333 341.333333 187.733333z m0-17.066667C331.656533 904.533333 187.733333 825.378133 187.733333 733.866667s143.9232-170.666667 324.266667-170.666667 324.266667 79.1552 324.266667 170.666667-143.9232 170.666667-324.266667 170.666666z" fill="#C6E5FF"></path><path d="M503.466667 187.733333h17.066666v716.8h-17.066666z" fill="#C4ECF5"></path><path d="M176.298667 699.733333c29.184 87.381333 168.379733 153.6 335.701333 153.6 167.3216 0 306.517333-66.218667 335.701333-153.6 3.703467 11.076267 5.632 22.4768 5.632 34.133334 0 103.68-152.814933 187.733333-341.333333 187.733333S170.666667 837.546667 170.666667 733.866667c0-11.656533 1.928533-23.057067 5.632-34.133334zM409.6 288.580267a102.4 102.4 0 1 0 204.8 0C614.4 232.021333 512 102.4 512 102.4s-102.4 129.621333-102.4 186.180267z" fill="#1875F0"></path><path d="M187.733333 546.133333m-34.133333 0a34.133333 34.133333 0 1 0 68.266667 0 34.133333 34.133333 0 1 0-68.266667 0Z" fill="#1875F0"></path><path d="M836.266667 546.133333m-34.133334 0a34.133333 34.133333 0 1 0 68.266667 0 34.133333 34.133333 0 1 0-68.266667 0Z" fill="#1875F0"></path><path d="M512 699.733333m-34.133333 0a34.133333 34.133333 0 1 0 68.266666 0 34.133333 34.133333 0 1 0-68.266666 0Z" fill="#1875F0"></path></svg>