<svg id="iconnengyuandengshujuzi" viewBox="0 0 1024 1024"><path d="M512 85.333333l369.493333 213.333334v426.666666L512 938.666667 142.506667 725.333333v-426.666666L512 85.333333z m0 19.712L159.573333 308.514133v406.971734L512 918.954667l352.426667-203.4688V308.514133L512 105.045333z" fill="#C6E5FF"></path><path d="M494.933333 102.4h17.066667v819.2h-17.066667z" fill="#C5E5FF"></path><path d="M863.061333 307.2l8.533334 14.779733-709.461334 409.6L153.6 716.8z" fill="#C5E5FF"></path><path d="M153.6 321.979733L162.133333 307.2l709.461334 409.6-8.533334 14.779733z" fill="#C5E5FF"></path><path d="M512 921.6m-34.133333 0a34.133333 34.133333 0 1 0 68.266666 0 34.133333 34.133333 0 1 0-68.266666 0Z" fill="#1875F0"></path><path d="M512 102.4m-34.133333 0a34.133333 34.133333 0 1 0 68.266666 0 34.133333 34.133333 0 1 0-68.266666 0Z" fill="#1875F0"></path><path d="M153.6 716.8m-34.133333 0a34.133333 34.133333 0 1 0 68.266666 0 34.133333 34.133333 0 1 0-68.266666 0Z" fill="#1875F0"></path><path d="M153.6 307.2m-34.133333 0a34.133333 34.133333 0 1 0 68.266666 0 34.133333 34.133333 0 1 0-68.266666 0Z" fill="#1875F0"></path><path d="M870.4 716.8m-34.133333 0a34.133333 34.133333 0 1 0 68.266666 0 34.133333 34.133333 0 1 0-68.266666 0Z" fill="#1875F0"></path><path d="M870.4 307.2m-34.133333 0a34.133333 34.133333 0 1 0 68.266666 0 34.133333 34.133333 0 1 0-68.266666 0Z" fill="#1875F0"></path><path d="M375.466667 398.916267c0-12.9536 10.205867-23.4496 22.818133-23.4496h227.4304C638.293333 375.466667 648.533333 385.962667 648.533333 398.916267v33.416533c0 12.9536-10.205867 23.4496-22.818133 23.4496H398.2848c-12.5952 0-22.818133-10.496-22.818133-23.4496v-33.416533z m0 96.375466c0-12.9536 10.205867-23.4496 22.818133-23.4496h227.4304c12.5952 0 22.818133 10.496 22.818133 23.4496v33.416534c0 12.9536-10.205867 23.4496-22.818133 23.4496H398.2848c-12.5952 0-22.818133-10.496-22.818133-23.4496V495.274667z m0 96.375467c0-12.9536 10.205867-23.4496 22.818133-23.4496h227.4304c12.5952 0 22.818133 10.496 22.818133 23.4496v33.416533c0 12.9536-10.205867 23.4496-22.818133 23.4496H398.2848C385.706667 648.533333 375.466667 638.037333 375.466667 625.083733v-33.416533z m48.196266-168.004267a16.059733 16.059733 0 1 0 0-32.136533 16.059733 16.059733 0 0 0 0 32.136533z" fill="#1875F0"></path></svg>